<?xml version="1.0" encoding="UTF-8" standalone="no"?>
<svg
   xmlns:dc="http://purl.org/dc/elements/1.1/"
   xmlns:cc="http://creativecommons.org/ns#"
   xmlns:rdf="http://www.w3.org/1999/02/22-rdf-syntax-ns#"
   xmlns:svg="http://www.w3.org/2000/svg"
   xmlns="http://www.w3.org/2000/svg"
   xmlns:sodipodi="http://sodipodi.sourceforge.net/DTD/sodipodi-0.dtd"
   xmlns:inkscape="http://www.inkscape.org/namespaces/inkscape"
   id="svg8"
   version="1.1"
   viewBox="0 0 112 16"
   height="16mm"
   width="112mm"
   sodipodi:docname="name.svg"
   inkscape:version="0.92.4 (f8dce91, 2019-08-02)">
  <sodipodi:namedview
     pagecolor="#ffffff"
     bordercolor="#666666"
     borderopacity="1"
     objecttolerance="10"
     gridtolerance="10"
     guidetolerance="10"
     inkscape:pageopacity="0"
     inkscape:pageshadow="2"
     inkscape:window-width="1600"
     inkscape:window-height="837"
     id="namedview80"
     showgrid="false"
     inkscape:pagecheckerboard="true"
     inkscape:zoom="3.3663504"
     inkscape:cx="169.32283"
     inkscape:cy="30.23622"
     inkscape:window-x="1920"
     inkscape:window-y="170"
     inkscape:window-maximized="1"
     inkscape:current-layer="svg8" />
  <defs
     id="defs2">
    <filter
       inkscape:collect="always"
       style="color-interpolation-filters:sRGB"
       id="filter4865"
       x="-0.016053601"
       width="1.0321072"
       y="-0.22855342"
       height="1.4571068">
      <feGaussianBlur
         inkscape:collect="always"
         stdDeviation="0.69642989"
         id="feGaussianBlur4867" />
    </filter>
  </defs>
  <metadata
     id="metadata5">
    <rdf:RDF>
      <cc:Work
         rdf:about="">
        <dc:format>image/svg+xml</dc:format>
        <dc:type
           rdf:resource="http://purl.org/dc/dcmitype/StillImage" />
        <dc:title />
      </cc:Work>
    </rdf:RDF>
  </metadata>
  <g
     transform="translate(-0.07859649,-280.21404)"
     id="layer1"
     style="fill:#000000;filter:url(#filter4865)">
    <g
       id="text4520"
       style="font-style:normal;font-weight:normal;font-size:10.58333302px;line-height:1.25;font-family:sans-serif;letter-spacing:0px;word-spacing:0px;fill:#000000;fill-opacity:1;stroke:none;stroke-width:0.26458332"
       aria-label="Sampo Lahti">
      <path
         id="path4522"
         style="font-style:normal;font-variant:normal;font-weight:normal;font-stretch:normal;font-family:Ethnocentric;-inkscape-font-specification:Ethnocentric;fill:#000000;stroke-width:0.26458332"
         d="m 11.475241,288.36986 q 1.153584,0 1.74625,0.41275 0.60325,0.40217 0.60325,1.19592 0,0.5715 -0.1905,1.05833 -0.1905,0.48683 -0.613833,0.84667 -0.41275,0.34925 -1.0795,0.55033 -0.656167,0.1905 -1.598083,0.1905 H 3.7494083 l 1.7250833,-1.82033 h 5.3657494 q 0.4445,0 0.645584,-0.14817 0.201083,-0.14817 0.201083,-0.45508 0,-0.42334 -0.66675,-0.42334 H 7.1572415 q -1.2064999,0 -1.7674166,-0.46566 -0.5609166,-0.46567 -0.5609166,-1.23825 0,-0.53975 0.1905,-0.99484 0.1904999,-0.46566 0.6032499,-0.80433 0.4233334,-0.34925 1.0795,-0.53975 0.6561666,-0.1905 1.5875,-0.1905 h 6.1489168 l -1.735667,1.8415 H 7.7922415 q -0.4445,0 -0.6455833,0.13758 -0.2010833,0.127 -0.2010833,0.4445 0,0.40217 0.6773333,0.40217 z"
         inkscape:connector-curvature="0" />
      <path
         id="path4524"
         style="font-style:normal;font-variant:normal;font-weight:normal;font-stretch:normal;font-family:Ethnocentric;-inkscape-font-specification:Ethnocentric;fill:#000000;stroke-width:0.26458332"
         d="m 13.264982,292.62436 z m 3.545417,0 1.651,-1.82033 h 1.767416 q 0.328084,0 0.66675,0 0.338667,0 0.592667,0.0212 -0.116417,-0.1905 -0.264583,-0.47625 -0.148167,-0.29633 -0.275167,-0.55033 l -0.941917,-1.87325 -4.148666,4.699 h -2.592917 l 5.672667,-6.40292 q 0.275166,-0.30691 0.656166,-0.55033 0.381,-0.24342 0.899584,-0.24342 0.497416,0 0.783166,0.23284 0.296334,0.22225 0.47625,0.56091 l 3.291417,6.40292 z"
         inkscape:connector-curvature="0" />
      <path
         id="path4526"
         style="font-style:normal;font-variant:normal;font-weight:normal;font-stretch:normal;font-family:Ethnocentric;-inkscape-font-specification:Ethnocentric;fill:#000000;stroke-width:0.26458332"
         d="m 25.316918,292.62436 z m 6.180667,-4.445 q 0.275166,0.73025 0.465666,1.24883 0.1905,0.508 0.306917,0.86784 0.116417,-0.1905 0.254,-0.381 0.137583,-0.20109 0.306917,-0.4445 0.179916,-0.254 0.402166,-0.56092 0.232833,-0.30692 0.53975,-0.71967 l 1.49225,-2.01083 q 0.243417,-0.33867 0.560917,-0.53975 0.328083,-0.21167 0.772583,-0.21167 0.41275,0 0.6985,0.24342 0.296333,0.23283 0.34925,0.73025 l 0.6985,6.223 h -2.180167 l -0.243416,-2.46592 q -0.05292,-0.60325 -0.08467,-1.05833 -0.03175,-0.45508 -0.04233,-0.889 -0.116417,0.1905 -0.254,0.39158 -0.127,0.1905 -0.296334,0.43392 -0.15875,0.23283 -0.359833,0.508 -0.1905,0.27517 -0.433917,0.62442 l -1.259416,1.778 q -0.1905,0.26458 -0.359833,0.42333 -0.15875,0.14817 -0.328084,0.23283 -0.169333,0.0847 -0.338666,0.10584 -0.169334,0.0317 -0.370417,0.0317 -0.201083,0 -0.370417,-0.0317 -0.15875,-0.0212 -0.296333,-0.10584 -0.137583,-0.0847 -0.254,-0.23283 -0.105833,-0.15875 -0.201083,-0.42333 l -0.635,-1.78859 q -0.127,-0.35983 -0.232834,-0.64558 -0.09525,-0.28575 -0.169333,-0.508 -0.07408,-0.23283 -0.137583,-0.42333 -0.05292,-0.1905 -0.105834,-0.37042 -0.15875,0.39158 -0.370416,0.889 -0.211667,0.48683 -0.455084,1.05833 l -1.100666,2.46592 h -2.148417 l 2.921,-6.223 q 0.243417,-0.49742 0.624417,-0.73025 0.381,-0.24342 0.79375,-0.24342 0.423333,0 0.677333,0.20109 0.254,0.20108 0.391583,0.55033 z"
         inkscape:connector-curvature="0" />
      <path
         id="path4528"
         style="font-style:normal;font-variant:normal;font-weight:normal;font-stretch:normal;font-family:Ethnocentric;-inkscape-font-specification:Ethnocentric;fill:#000000;stroke-width:0.26458332"
         d="m 39.136269,292.62436 z m 10.19175,-4.80483 q 0,0.65616 -0.28575,1.2065 -0.275167,0.55033 -0.79375,0.9525 -0.508,0.39158 -1.248834,0.61383 -0.740833,0.22225 -1.661583,0.22225 h -3.704166 l -0.3175,1.80975 h -2.180167 l 0.635,-3.6195 h 6.096 q 0.5715,0 0.899583,-0.26458 0.328083,-0.26459 0.328083,-0.67734 0,-0.30691 -0.243416,-0.48683 -0.232834,-0.1905 -0.6985,-0.1905 h -6.096 l 1.778,-1.8415 h 4.445 q 0.740833,0 1.30175,0.16933 0.5715,0.15875 0.9525,0.46567 0.391583,0.29633 0.592666,0.71967 0.201084,0.41275 0.201084,0.92075 z"
         inkscape:connector-curvature="0" />
      <path
         id="path4530"
         style="font-style:normal;font-variant:normal;font-weight:normal;font-stretch:normal;font-family:Ethnocentric;-inkscape-font-specification:Ethnocentric;fill:#000000;stroke-width:0.26458332"
         d="m 49.944831,292.62436 z m 5.894917,-7.19667 q 2.307167,0 3.450166,0.73025 1.153584,0.71967 1.153584,2.26484 0,2.18016 -1.4605,3.24908 -1.4605,1.06892 -4.434417,1.06892 -2.307166,0 -3.46075,-0.73025 -1.143,-0.73025 -1.143,-2.27542 0,-2.18017 1.4605,-3.2385 1.4605,-1.06892 4.434417,-1.06892 z m -0.973667,5.47159 q 1.068917,0 1.725084,-0.0952 0.66675,-0.0953 1.026583,-0.34925 0.370417,-0.254 0.497417,-0.68792 0.127,-0.4445 0.127,-1.12183 0,-0.42334 -0.15875,-0.68792 -0.148167,-0.27517 -0.486834,-0.42333 -0.328083,-0.15875 -0.846666,-0.21167 -0.518584,-0.0529 -1.23825,-0.0529 -1.068917,0 -1.725084,0.0953 -0.656166,0.0953 -1.026583,0.34925 -0.359833,0.254 -0.486833,0.6985 -0.127,0.43392 -0.127,1.11125 0,0.43392 0.15875,0.6985 0.15875,0.26459 0.486833,0.42334 0.328083,0.14816 0.836083,0.20108 0.518584,0.0529 1.23825,0.0529 z"
         inkscape:connector-curvature="0" />
      <path
         id="path4532"
         style="font-style:normal;font-variant:normal;font-weight:normal;font-stretch:normal;font-family:Ethnocentric;-inkscape-font-specification:Ethnocentric;fill:#000000;stroke-width:0.26458332"
         d="m 72.913971,290.80403 -1.74625,1.82033 h -6.25475 l 1.259416,-7.08025 h 2.180167 l -0.931333,5.25992 z"
         inkscape:connector-curvature="0" />
      <path
         id="path4534"
         style="font-style:normal;font-variant:normal;font-weight:normal;font-stretch:normal;font-family:Ethnocentric;-inkscape-font-specification:Ethnocentric;fill:#000000;stroke-width:0.26458332"
         d="m 72.424157,292.62436 z m 3.545417,0 1.651,-1.82033 h 1.767416 q 0.328084,0 0.66675,0 0.338667,0 0.592667,0.0212 -0.116417,-0.1905 -0.264583,-0.47625 -0.148167,-0.29633 -0.275167,-0.55033 l -0.941917,-1.87325 -4.148666,4.699 h -2.592917 l 5.672667,-6.40292 q 0.275166,-0.30691 0.656166,-0.55033 0.381,-0.24342 0.899584,-0.24342 0.497416,0 0.783166,0.23284 0.296334,0.22225 0.47625,0.56091 l 3.291417,6.40292 z"
         inkscape:connector-curvature="0" />
      <path
         id="path4536"
         style="font-style:normal;font-variant:normal;font-weight:normal;font-stretch:normal;font-family:Ethnocentric;-inkscape-font-specification:Ethnocentric;fill:#000000;stroke-width:0.26458332"
         d="m 84.984096,292.62436 z m 8.593666,0 h -2.180166 l 0.486833,-2.7305 h -4.22275 l -0.47625,2.7305 h -2.201333 l 1.259416,-7.08025 h 2.19075 l -0.455083,2.50825 h 4.22275 l 0.4445,-2.50825 h 2.19075 z"
         inkscape:connector-curvature="0" />
      <path
         id="path4538"
         style="font-style:normal;font-variant:normal;font-weight:normal;font-stretch:normal;font-family:Ethnocentric;-inkscape-font-specification:Ethnocentric;fill:#000000;stroke-width:0.26458332"
         d="m 95.180639,292.62436 z m 9.800171,-7.08025 -1.75684,1.8415 h -2.51883 l -0.931335,5.23875 h -2.19075 l 0.92075,-5.23875 h -3.323166 l 1.756833,-1.8415 z"
         inkscape:connector-curvature="0" />
      <path
         id="path4540"
         style="font-style:normal;font-variant:normal;font-weight:normal;font-stretch:normal;font-family:Ethnocentric;-inkscape-font-specification:Ethnocentric;fill:#000000;stroke-width:0.26458332"
         d="m 104.42551,292.62436 z m 2.19075,0 h -2.19075 l 1.25942,-7.08025 h 2.18017 z"
         inkscape:connector-curvature="0" />
    </g>
  </g>
  <g
     transform="translate(-0.791268,-281)"
     id="layer1-3"
     style="fill:#ffffff">
    <g
       id="text4520-6"
       style="font-style:normal;font-weight:normal;font-size:10.58333302px;line-height:1.25;font-family:sans-serif;letter-spacing:0px;word-spacing:0px;fill:#ffffff;fill-opacity:1;stroke:none;stroke-width:0.26458332"
       aria-label="Sampo Lahti">
      <path
         inkscape:connector-curvature="0"
         id="path4522-7"
         style="font-style:normal;font-variant:normal;font-weight:normal;font-stretch:normal;font-family:Ethnocentric;-inkscape-font-specification:Ethnocentric;fill:#ffffff;stroke-width:0.26458332"
         d="m 11.475241,288.36986 q 1.153584,0 1.74625,0.41275 0.60325,0.40217 0.60325,1.19592 0,0.5715 -0.1905,1.05833 -0.1905,0.48683 -0.613833,0.84667 -0.41275,0.34925 -1.0795,0.55033 -0.656167,0.1905 -1.598083,0.1905 H 3.7494083 l 1.7250833,-1.82033 h 5.3657494 q 0.4445,0 0.645584,-0.14817 0.201083,-0.14817 0.201083,-0.45508 0,-0.42334 -0.66675,-0.42334 H 7.1572415 q -1.2064999,0 -1.7674166,-0.46566 -0.5609166,-0.46567 -0.5609166,-1.23825 0,-0.53975 0.1905,-0.99484 0.1904999,-0.46566 0.6032499,-0.80433 0.4233334,-0.34925 1.0795,-0.53975 0.6561666,-0.1905 1.5875,-0.1905 h 6.1489168 l -1.735667,1.8415 H 7.7922415 q -0.4445,0 -0.6455833,0.13758 -0.2010833,0.127 -0.2010833,0.4445 0,0.40217 0.6773333,0.40217 z" />
      <path
         inkscape:connector-curvature="0"
         id="path4524-5"
         style="font-style:normal;font-variant:normal;font-weight:normal;font-stretch:normal;font-family:Ethnocentric;-inkscape-font-specification:Ethnocentric;fill:#ffffff;stroke-width:0.26458332"
         d="m 13.264982,292.62436 z m 3.545417,0 1.651,-1.82033 h 1.767416 q 0.328084,0 0.66675,0 0.338667,0 0.592667,0.0212 -0.116417,-0.1905 -0.264583,-0.47625 -0.148167,-0.29633 -0.275167,-0.55033 l -0.941917,-1.87325 -4.148666,4.699 h -2.592917 l 5.672667,-6.40292 q 0.275166,-0.30691 0.656166,-0.55033 0.381,-0.24342 0.899584,-0.24342 0.497416,0 0.783166,0.23284 0.296334,0.22225 0.47625,0.56091 l 3.291417,6.40292 z" />
      <path
         inkscape:connector-curvature="0"
         id="path4526-3"
         style="font-style:normal;font-variant:normal;font-weight:normal;font-stretch:normal;font-family:Ethnocentric;-inkscape-font-specification:Ethnocentric;fill:#ffffff;stroke-width:0.26458332"
         d="m 25.316918,292.62436 z m 6.180667,-4.445 q 0.275166,0.73025 0.465666,1.24883 0.1905,0.508 0.306917,0.86784 0.116417,-0.1905 0.254,-0.381 0.137583,-0.20109 0.306917,-0.4445 0.179916,-0.254 0.402166,-0.56092 0.232833,-0.30692 0.53975,-0.71967 l 1.49225,-2.01083 q 0.243417,-0.33867 0.560917,-0.53975 0.328083,-0.21167 0.772583,-0.21167 0.41275,0 0.6985,0.24342 0.296333,0.23283 0.34925,0.73025 l 0.6985,6.223 h -2.180167 l -0.243416,-2.46592 q -0.05292,-0.60325 -0.08467,-1.05833 -0.03175,-0.45508 -0.04233,-0.889 -0.116417,0.1905 -0.254,0.39158 -0.127,0.1905 -0.296334,0.43392 -0.15875,0.23283 -0.359833,0.508 -0.1905,0.27517 -0.433917,0.62442 l -1.259416,1.778 q -0.1905,0.26458 -0.359833,0.42333 -0.15875,0.14817 -0.328084,0.23283 -0.169333,0.0847 -0.338666,0.10584 -0.169334,0.0317 -0.370417,0.0317 -0.201083,0 -0.370417,-0.0317 -0.15875,-0.0212 -0.296333,-0.10584 -0.137583,-0.0847 -0.254,-0.23283 -0.105833,-0.15875 -0.201083,-0.42333 l -0.635,-1.78859 q -0.127,-0.35983 -0.232834,-0.64558 -0.09525,-0.28575 -0.169333,-0.508 -0.07408,-0.23283 -0.137583,-0.42333 -0.05292,-0.1905 -0.105834,-0.37042 -0.15875,0.39158 -0.370416,0.889 -0.211667,0.48683 -0.455084,1.05833 l -1.100666,2.46592 h -2.148417 l 2.921,-6.223 q 0.243417,-0.49742 0.624417,-0.73025 0.381,-0.24342 0.79375,-0.24342 0.423333,0 0.677333,0.20109 0.254,0.20108 0.391583,0.55033 z" />
      <path
         inkscape:connector-curvature="0"
         id="path4528-5"
         style="font-style:normal;font-variant:normal;font-weight:normal;font-stretch:normal;font-family:Ethnocentric;-inkscape-font-specification:Ethnocentric;fill:#ffffff;stroke-width:0.26458332"
         d="m 39.136269,292.62436 z m 10.19175,-4.80483 q 0,0.65616 -0.28575,1.2065 -0.275167,0.55033 -0.79375,0.9525 -0.508,0.39158 -1.248834,0.61383 -0.740833,0.22225 -1.661583,0.22225 h -3.704166 l -0.3175,1.80975 h -2.180167 l 0.635,-3.6195 h 6.096 q 0.5715,0 0.899583,-0.26458 0.328083,-0.26459 0.328083,-0.67734 0,-0.30691 -0.243416,-0.48683 -0.232834,-0.1905 -0.6985,-0.1905 h -6.096 l 1.778,-1.8415 h 4.445 q 0.740833,0 1.30175,0.16933 0.5715,0.15875 0.9525,0.46567 0.391583,0.29633 0.592666,0.71967 0.201084,0.41275 0.201084,0.92075 z" />
      <path
         inkscape:connector-curvature="0"
         id="path4530-6"
         style="font-style:normal;font-variant:normal;font-weight:normal;font-stretch:normal;font-family:Ethnocentric;-inkscape-font-specification:Ethnocentric;fill:#ffffff;stroke-width:0.26458332"
         d="m 49.944831,292.62436 z m 5.894917,-7.19667 q 2.307167,0 3.450166,0.73025 1.153584,0.71967 1.153584,2.26484 0,2.18016 -1.4605,3.24908 -1.4605,1.06892 -4.434417,1.06892 -2.307166,0 -3.46075,-0.73025 -1.143,-0.73025 -1.143,-2.27542 0,-2.18017 1.4605,-3.2385 1.4605,-1.06892 4.434417,-1.06892 z m -0.973667,5.47159 q 1.068917,0 1.725084,-0.0952 0.66675,-0.0953 1.026583,-0.34925 0.370417,-0.254 0.497417,-0.68792 0.127,-0.4445 0.127,-1.12183 0,-0.42334 -0.15875,-0.68792 -0.148167,-0.27517 -0.486834,-0.42333 -0.328083,-0.15875 -0.846666,-0.21167 -0.518584,-0.0529 -1.23825,-0.0529 -1.068917,0 -1.725084,0.0953 -0.656166,0.0953 -1.026583,0.34925 -0.359833,0.254 -0.486833,0.6985 -0.127,0.43392 -0.127,1.11125 0,0.43392 0.15875,0.6985 0.15875,0.26459 0.486833,0.42334 0.328083,0.14816 0.836083,0.20108 0.518584,0.0529 1.23825,0.0529 z" />
      <path
         inkscape:connector-curvature="0"
         id="path4532-2"
         style="font-style:normal;font-variant:normal;font-weight:normal;font-stretch:normal;font-family:Ethnocentric;-inkscape-font-specification:Ethnocentric;fill:#ffffff;stroke-width:0.26458332"
         d="m 72.913971,290.80403 -1.74625,1.82033 h -6.25475 l 1.259416,-7.08025 h 2.180167 l -0.931333,5.25992 z" />
      <path
         inkscape:connector-curvature="0"
         id="path4534-9"
         style="font-style:normal;font-variant:normal;font-weight:normal;font-stretch:normal;font-family:Ethnocentric;-inkscape-font-specification:Ethnocentric;fill:#ffffff;stroke-width:0.26458332"
         d="m 72.424157,292.62436 z m 3.545417,0 1.651,-1.82033 h 1.767416 q 0.328084,0 0.66675,0 0.338667,0 0.592667,0.0212 -0.116417,-0.1905 -0.264583,-0.47625 -0.148167,-0.29633 -0.275167,-0.55033 l -0.941917,-1.87325 -4.148666,4.699 h -2.592917 l 5.672667,-6.40292 q 0.275166,-0.30691 0.656166,-0.55033 0.381,-0.24342 0.899584,-0.24342 0.497416,0 0.783166,0.23284 0.296334,0.22225 0.47625,0.56091 l 3.291417,6.40292 z" />
      <path
         inkscape:connector-curvature="0"
         id="path4536-1"
         style="font-style:normal;font-variant:normal;font-weight:normal;font-stretch:normal;font-family:Ethnocentric;-inkscape-font-specification:Ethnocentric;fill:#ffffff;stroke-width:0.26458332"
         d="m 84.984096,292.62436 z m 8.593666,0 h -2.180166 l 0.486833,-2.7305 h -4.22275 l -0.47625,2.7305 h -2.201333 l 1.259416,-7.08025 h 2.19075 l -0.455083,2.50825 h 4.22275 l 0.4445,-2.50825 h 2.19075 z" />
      <path
         inkscape:connector-curvature="0"
         id="path4538-2"
         style="font-style:normal;font-variant:normal;font-weight:normal;font-stretch:normal;font-family:Ethnocentric;-inkscape-font-specification:Ethnocentric;fill:#ffffff;stroke-width:0.26458332"
         d="m 95.180639,292.62436 z m 9.800171,-7.08025 -1.75684,1.8415 h -2.51883 l -0.931335,5.23875 h -2.19075 l 0.92075,-5.23875 h -3.323166 l 1.756833,-1.8415 z" />
      <path
         inkscape:connector-curvature="0"
         id="path4540-7"
         style="font-style:normal;font-variant:normal;font-weight:normal;font-stretch:normal;font-family:Ethnocentric;-inkscape-font-specification:Ethnocentric;fill:#ffffff;stroke-width:0.26458332"
         d="m 104.42551,292.62436 z m 2.19075,0 h -2.19075 l 1.25942,-7.08025 h 2.18017 z" />
    </g>
  </g>
</svg>
