<?xml version="1.0" encoding="iso-8859-1"?>
<!-- Generator: Adobe Illustrator 19.0.0, SVG Export Plug-In . SVG Version: 6.00 Build 0)  -->
<svg version="1.1" id="Layer_1" xmlns="http://www.w3.org/2000/svg" xmlns:xlink="http://www.w3.org/1999/xlink" x="0px" y="0px"
	 viewBox="0 0 512 512" style="enable-background:new 0 0 512 512;" xml:space="preserve">
<g transform="translate(1 1)">
	<g>
		<g>
			<path d="M58.733,24.6C39.96,24.6,24.6,39.96,24.6,58.733s15.36,34.133,34.133,34.133s34.133-15.36,34.133-34.133
				S77.507,24.6,58.733,24.6z M58.733,75.8c-9.387,0-17.067-7.68-17.067-17.067s7.68-17.067,17.067-17.067S75.8,49.347,75.8,58.733
				S68.12,75.8,58.733,75.8z"/>
			<path d="M135.533,24.6c-18.773,0-34.133,15.36-34.133,34.133s15.36,34.133,34.133,34.133c18.773,0,34.133-15.36,34.133-34.133
				S154.307,24.6,135.533,24.6z M135.533,75.8c-9.387,0-17.067-7.68-17.067-17.067s7.68-17.067,17.067-17.067
				s17.067,7.68,17.067,17.067S144.92,75.8,135.533,75.8z"/>
			<path d="M212.333,24.6c-18.773,0-34.133,15.36-34.133,34.133s15.36,34.133,34.133,34.133c18.773,0,34.133-15.36,34.133-34.133
				S231.107,24.6,212.333,24.6z M212.333,75.8c-9.387,0-17.067-7.68-17.067-17.067s7.68-17.067,17.067-17.067
				c9.387,0,17.067,7.68,17.067,17.067S221.72,75.8,212.333,75.8z"/>
			<path d="M487.107-1H23.747C10.093-1-1,10.093-1,23.747V101.4v17.067v237.227C-1,371.053,10.947,383,26.307,383h92.437
				c4.444,71.158,64.03,128,136.257,128s131.813-56.842,136.257-128h92.437c15.36,0,27.307-11.947,27.307-27.307V118.467V101.4
				V23.747C511,10.093,499.907-1,487.107-1z M135.844,383h43.307c0.566,14.401,3.218,28.684,7.794,42.667h-39.807
				C140.871,412.564,136.927,398.162,135.844,383z M246.467,306.2h-34.042c8.307-16.676,19.719-32.675,34.042-47.703V306.2z
				 M246.467,323.267v42.667H196.33c0.772-14.496,3.733-28.77,8.774-42.667H246.467z M263.533,323.267h41.909
				c5.13,13.893,8.175,28.168,9.034,42.667h-50.943V323.267z M263.533,306.2v-47.735c14.476,15.029,26.023,31.039,34.458,47.735
				H263.533z M287.079,259.408c26.943,7.562,50.109,24.391,65.807,46.792h-36.15C309.421,289.931,299.498,274.267,287.079,259.408z
				 M193.738,306.2h-36.624c15.732-22.448,38.962-39.3,65.977-46.839C210.772,274.24,200.957,289.921,193.738,306.2z
				 M147.138,323.267H187.2c-4.502,13.892-7.171,28.152-7.92,42.667h-43.436C136.927,350.771,140.871,336.369,147.138,323.267z
				 M196.437,383h50.03v42.667h-40.859C200.455,411.734,197.373,397.438,196.437,383z M246.467,442.733v46.842
				c-13.972-14.695-25.162-30.438-33.414-46.842H246.467z M263.533,442.733h34.526c-8.441,16.846-20.012,33.083-34.526,48.473
				V442.733z M263.533,425.667V383h50.943c-0.857,14.481-3.896,28.745-9.014,42.667H263.533z M331.598,383h42.558
				c-1.083,15.162-5.027,29.564-11.294,42.667h-39.258C328.198,411.629,330.889,397.335,331.598,383z M331.53,365.933
				c-0.825-14.518-3.572-28.777-8.153-42.667h39.485c6.267,13.103,10.211,27.505,11.294,42.667H331.53z M157.114,442.733h36.442
				c7.285,16.251,17.196,31.97,29.525,46.836C196.07,482.029,172.843,465.178,157.114,442.733z M287.961,489.276
				c12.172-14.806,21.889-30.438,29.06-46.543h35.865C337.359,464.889,314.528,481.597,287.961,489.276z M493.933,355.693
				c0,5.973-4.267,10.24-10.24,10.24h-92.16c-4.191-70.414-61.908-126-132.702-127.943c-0.116-0.003-0.231-0.01-0.348-0.013
				c-1.158-0.029-2.319-0.044-3.484-0.044s-2.326,0.016-3.484,0.044c-0.116,0.003-0.232,0.009-0.348,0.013
				c-70.794,1.942-128.511,57.529-132.702,127.943h-92.16c-5.973,0-10.24-4.267-10.24-10.24V118.467h477.867V355.693z M16.067,101.4
				V23.747c0-4.267,3.413-7.68,7.68-7.68h462.507c4.267,0,7.68,3.413,7.68,7.68V101.4H16.067z"/>
		</g>
	</g>
</g>
<g>
</g>
<g>
</g>
<g>
</g>
<g>
</g>
<g>
</g>
<g>
</g>
<g>
</g>
<g>
</g>
<g>
</g>
<g>
</g>
<g>
</g>
<g>
</g>
<g>
</g>
<g>
</g>
<g>
</g>
</svg>
