<?xml version="1.0" encoding="iso-8859-1"?>
<!-- Generator: Adobe Illustrator 18.0.0, SVG Export Plug-In . SVG Version: 6.00 Build 0)  -->
<!DOCTYPE svg PUBLIC "-//W3C//DTD SVG 1.1//EN" "http://www.w3.org/Graphics/SVG/1.1/DTD/svg11.dtd">
<svg version="1.1" id="Capa_1" xmlns="http://www.w3.org/2000/svg" xmlns:xlink="http://www.w3.org/1999/xlink" x="0px" y="0px"
	 viewBox="0 0 327 327" style="enable-background:new 0 0 327 327;" xml:space="preserve">
<path d="M317,15.883H10c-5.523,0-10,4.477-10,10v225.234c0,5.523,4.477,10,10,10h80.995c-3.802,8.607-10.728,20.793-22.864,32.929
	c-2.86,2.86-3.715,7.162-2.168,10.898c1.548,3.737,5.194,6.173,9.239,6.173h176.596c4.044,0,7.691-2.436,9.239-6.173
	c1.548-3.736,0.692-8.037-2.168-10.898c-12.14-12.14-19.066-24.329-22.866-32.929H317c5.523,0,10-4.477,10-10V25.883
	C327,20.36,322.523,15.883,317,15.883z M274.5,239.117c0,1.933-1.567,3.5-3.5,3.5h-4.5c-1.933,0-3.5-1.567-3.5-3.5v-6.008
	c0-1.933,1.567-3.5,3.5-3.5h4.5c1.933,0,3.5,1.567,3.5,3.5V239.117z M291.75,239.117c0,1.933-1.567,3.5-3.5,3.5h-4.5
	c-1.933,0-3.5-1.567-3.5-3.5v-6.008c0-1.933,1.567-3.5,3.5-3.5h4.5c1.933,0,3.5,1.567,3.5,3.5V239.117z M307,211.109H20V53.383h287
	V211.109z"/>
<g>
</g>
<g>
</g>
<g>
</g>
<g>
</g>
<g>
</g>
<g>
</g>
<g>
</g>
<g>
</g>
<g>
</g>
<g>
</g>
<g>
</g>
<g>
</g>
<g>
</g>
<g>
</g>
<g>
</g>
</svg>
