<?xml version="1.0" encoding="iso-8859-1"?>
<!-- Generator: Adobe Illustrator 19.0.0, SVG Export Plug-In . SVG Version: 6.00 Build 0)  -->
<svg version="1.1" id="Layer_1" xmlns="http://www.w3.org/2000/svg" xmlns:xlink="http://www.w3.org/1999/xlink" x="0px" y="0px"
	 viewBox="0 0 485 485" style="enable-background:new 0 0 485 485;" xml:space="preserve">
<g>
	<g>
		<path d="M242.5,485c-92.174,0-167.163-74.989-167.163-167.163V167.163h30v150.675C105.337,393.469,166.868,455,242.5,455
			s137.163-61.531,137.163-137.163V167.163h30v150.675C409.663,410.011,334.674,485,242.5,485z"/>
	</g>
	<g>
		<path d="M242.5,409.663c-92.174,0-167.163-74.989-167.163-167.163h30c0,75.632,61.531,137.163,137.163,137.163
			S379.663,318.132,379.663,242.5h30C409.663,334.674,334.674,409.663,242.5,409.663z"/>
	</g>
	<g>
		<rect x="177.62" y="132.663" width="87.979" height="30"/>
	</g>
	<g>
		<rect x="177.061" y="171.663" width="88.538" height="30"/>
	</g>
	<g>
		<path d="M242.5,270.378c-32.036,0-58.099-26.063-58.099-58.098v-90.235c0-32.036,26.063-58.098,58.099-58.098
			s58.099,26.063,58.099,58.098h-30c0-15.493-12.605-28.098-28.099-28.098s-28.099,12.605-28.099,28.098v90.235
			c0,15.493,12.605,28.098,28.099,28.098s28.099-12.605,28.099-28.098h30C300.599,244.316,274.536,270.378,242.5,270.378z"/>
	</g>
	<g>
		<path d="M242.5,334.326c-92.174,0-167.163-74.989-167.163-167.163S150.326,0,242.5,0s167.163,74.989,167.163,167.163
			S334.674,334.326,242.5,334.326z M242.5,30c-75.632,0-137.163,61.531-137.163,137.163S166.868,304.326,242.5,304.326
			s137.163-61.531,137.163-137.163S318.132,30,242.5,30z"/>
	</g>
</g>
<g>
</g>
<g>
</g>
<g>
</g>
<g>
</g>
<g>
</g>
<g>
</g>
<g>
</g>
<g>
</g>
<g>
</g>
<g>
</g>
<g>
</g>
<g>
</g>
<g>
</g>
<g>
</g>
<g>
</g>
</svg>
